<?xml version="1.0" encoding="utf-8"?>
<!-- Generator: Adobe Illustrator 16.0.0, SVG Export Plug-In . SVG Version: 6.00 Build 0)  -->
<!DOCTYPE svg PUBLIC "-//W3C//DTD SVG 1.1//EN" "http://www.w3.org/Graphics/SVG/1.1/DTD/svg11.dtd">
<svg version="1.1" id="Layer_1"
  xmlns="http://www.w3.org/2000/svg"
  xmlns:xlink="http://www.w3.org/1999/xlink" x="0px" y="0px" width="555.366px" height="197.211px" viewBox="0 0 555.366 197.211" enable-background="new 0 0 555.366 197.211" xml:space="preserve">
  <g>
    <path fill="#51c1b7" d="M43.631,99.224c-13.374,0-24.246-10.872-24.246-24.246H0c0,24.057,19.575,43.631,43.631,43.631
		c8.969,0,17.306-2.732,24.246-7.393v5.733h19.384V74.978H67.877C67.877,88.353,57.005,99.224,43.631,99.224"/>
    <path fill="#02405a" d="M67.877,38.741c-6.94-4.661-15.277-7.394-24.246-7.394C19.575,31.347,0,50.921,0,74.978h19.385
		c0-13.375,10.872-24.246,24.246-24.246c13.375,0,24.246,10.872,24.246,24.246h19.384V0H67.877V38.741"/>
    <rect x="308.044" fill="#02405a" width="19.385" height="74.978"/>
    <rect x="308.044" y="74.978" fill="#51c1b7" width="19.386" height="41.972"/>
    <rect x="106.646" y="33.283" fill="#02405a" width="19.385" height="41.695"/>
    <path fill="#51c1b7" d="M163.986,74.978v5.705c0,10.464-8.515,18.978-18.978,18.978c-10.464,0-18.978-8.514-18.978-18.978v-5.705
		h-19.385v5.705c0,21.146,17.217,38.362,38.363,38.362s38.361-17.216,38.361-38.362v-5.705H163.986"/>
    <rect x="163.987" y="33.283" fill="#02405a" width="19.383" height="41.695"/>
    <path fill="#02405a" d="M220.798,74.978c0-13.375,10.871-24.246,24.245-24.246c13.36,0,24.231,10.872,24.231,24.246h19.385V33.662
		h-19.385v5.076c-6.938-4.657-15.27-7.389-24.231-7.389c-24.057,0-43.631,19.573-43.631,43.63H220.798"/>
    <path fill="#51c1b7" d="M269.274,74.978c0,13.375-10.871,24.246-24.231,24.246c-13.374,0-24.246-10.872-24.246-24.246h-19.385
		c0,24.057,19.574,43.631,43.631,43.631c8.961,0,17.293-2.732,24.231-7.389v5.729h19.385V74.978H269.274"/>
    <path fill="#51c1b7" d="M413.245,74.978c0,13.375-10.871,24.246-24.245,24.246c-13.36,0-24.231-10.872-24.231-24.246v0.001h-19.385
		c0,24.056,19.574,43.63,43.616,43.63c24.057,0,43.631-19.574,43.631-43.63L413.245,74.978L413.245,74.978"/>
    <path fill="#02405a" d="M389,31.348c-24.042,0-43.616,19.573-43.616,43.63v0.001h19.385v-0.001
		c0-13.375,10.871-24.246,24.231-24.246c13.374,0,24.245,10.872,24.245,24.246v0.001h19.386v-0.001
		C432.631,50.921,413.057,31.348,389,31.348"/>
    <path fill="#02405a" d="M492.073,50.732c13.375,0,24.246,10.873,24.246,24.247h19.385c0-24.058-19.574-43.631-43.631-43.631
		c-24.056,0-43.631,19.573-43.631,43.631h19.386C467.828,61.604,478.699,50.732,492.073,50.732"/>
    <path fill="#51c1b7" d="M492.073,99.224c-13.375,0-24.246-10.872-24.246-24.246h-19.384c0,24.057,19.573,43.631,43.63,43.631
		c24.056,0,43.631-19.574,43.631-43.631h-19.386C516.318,88.353,505.448,99.224,492.073,99.224"/>
    <path fill="#51c1b7" d="M492.073,129.16c-18.759,0-34.025,15.267-34.025,34.026c0,18.759,15.267,34.025,34.025,34.025
		c18.76,0,34.026-15.267,34.026-34.025C526.1,144.426,510.833,129.16,492.073,129.16 M492.073,177.826
		c-8.076,0-14.641-6.563-14.641-14.64c0-8.077,6.564-14.642,14.641-14.642c8.077,0,14.641,6.564,14.641,14.642
		C506.714,171.262,500.15,177.826,492.073,177.826z"/>
    <path fill="#02405a" d="M540.744,11.536c-8.076,0-14.622,6.548-14.622,14.623c0,8.077,6.546,14.622,14.622,14.622
		c8.074,0,14.622-6.545,14.622-14.622C555.366,18.084,548.818,11.536,540.744,11.536"/>
  </g>
</svg>
